<svg width="85" height="26" viewBox="0 0 85 26" fill="none" xmlns="http://www.w3.org/2000/svg">
<path d="M29.5625 11V2.27273H31.9318V5.80114H32.0511L34.6761 2.27273H37.4375L34.4886 6.15909L37.5057 11H34.6761L32.7159 7.72727L31.9318 8.75V11H29.5625ZM41.5899 2.27273V11H39.2206V2.27273H41.5899ZM51.3439 2.27273V11H49.3667L46.2133 6.41477H46.1621V11H43.7928V2.27273H45.8042L48.9064 6.84091H48.9746V2.27273H51.3439ZM53.5447 11V2.27273H59.8345V4.18182H55.914V5.68182H59.5106V7.59091H55.914V9.09091H59.8174V11H53.5447ZM61.8509 4.18182V2.27273H69.4361V4.18182H66.8111V11H64.4759V4.18182H61.8509ZM73.7771 2.27273V11H71.4078V2.27273H73.7771ZM78.5198 2.27273L79.9516 4.8125H80.0198L81.4686 2.27273H84.1107L81.5027 6.63636L84.213 11H81.5027L80.0198 8.40909H79.9516L78.4686 11H75.7755L78.4516 6.63636L75.8607 2.27273H78.5198ZM37.7102 18.5455H35.3068C35.2898 18.3466 35.2443 18.1662 35.1705 18.0043C35.0994 17.8423 35 17.7031 34.8722 17.5866C34.7472 17.4673 34.5952 17.3764 34.4162 17.3139C34.2372 17.2486 34.0341 17.2159 33.8068 17.2159C33.4091 17.2159 33.0724 17.3125 32.7969 17.5057C32.5241 17.6989 32.3168 17.9759 32.1747 18.3366C32.0355 18.6974 31.9659 19.1307 31.9659 19.6364C31.9659 20.1705 32.0369 20.6179 32.179 20.9787C32.3239 21.3366 32.5327 21.6065 32.8054 21.7884C33.0781 21.9673 33.4063 22.0568 33.7898 22.0568C34.0085 22.0568 34.2045 22.0298 34.3778 21.9759C34.5511 21.919 34.7017 21.8381 34.8295 21.733C34.9574 21.6278 35.0611 21.5014 35.1406 21.3537C35.223 21.2031 35.2784 21.0341 35.3068 20.8466L37.7102 20.8636C37.6818 21.233 37.5781 21.6094 37.3991 21.9929C37.2202 22.3736 36.9659 22.7259 36.6364 23.0497C36.3097 23.3707 35.9048 23.6293 35.4219 23.8253C34.9389 24.0213 34.3778 24.1193 33.7386 24.1193C32.9375 24.1193 32.2188 23.9474 31.5824 23.6037C30.9489 23.2599 30.4474 22.7543 30.0781 22.0866C29.7116 21.419 29.5284 20.6023 29.5284 19.6364C29.5284 18.6648 29.7159 17.8466 30.0909 17.1818C30.4659 16.5142 30.9716 16.0099 31.608 15.669C32.2443 15.3253 32.9545 15.1534 33.7386 15.1534C34.2898 15.1534 34.7969 15.2287 35.2599 15.3793C35.723 15.5298 36.1293 15.75 36.4787 16.0398C36.8281 16.3267 37.1094 16.6804 37.3224 17.1009C37.5355 17.5213 37.6648 18.0028 37.7102 18.5455ZM41.1427 24H38.5859L41.4665 15.2727H44.7052L47.5859 24H45.029L43.1199 17.6761H43.0518L41.1427 24ZM40.6654 20.5568H45.4722V22.3295H40.6654V20.5568ZM48.7864 24V15.2727H52.5535C53.2012 15.2727 53.7679 15.4006 54.2537 15.6562C54.7395 15.9119 55.1174 16.2713 55.3873 16.7344C55.6571 17.1974 55.7921 17.7386 55.7921 18.358C55.7921 18.983 55.6529 19.5241 55.3745 19.9815C55.0989 20.4389 54.7111 20.7912 54.2111 21.0384C53.714 21.2855 53.133 21.4091 52.4682 21.4091H50.2182V19.5682H51.991C52.2694 19.5682 52.5066 19.5199 52.7026 19.4233C52.9015 19.3239 53.0535 19.1832 53.1586 19.0014C53.2665 18.8196 53.3205 18.6051 53.3205 18.358C53.3205 18.108 53.2665 17.8949 53.1586 17.7188C53.0535 17.5398 52.9015 17.4034 52.7026 17.3097C52.5066 17.2131 52.2694 17.1648 51.991 17.1648H51.1557V24H48.7864ZM59.3907 15.2727V24H57.0214V15.2727H59.3907ZM60.635 17.1818V15.2727H68.2202V17.1818H65.5952V24H63.26V17.1818H60.635ZM70.6374 24H68.0805L70.9612 15.2727H74.1999L77.0805 24H74.5237L72.6146 17.6761H72.5464L70.6374 24ZM70.1601 20.5568H74.9669V22.3295H70.1601V20.5568ZM78.2811 24V15.2727H80.6504V22.0909H84.1788V24H78.2811Z" fill="black"/>
<path d="M15.9899 16.3793C16.8976 15.4586 16.8589 13.911 15.8354 13.049C14.9471 12.3045 13.6146 12.4221 12.8035 13.2449L11.9538 14.1069L11.0462 15.0276C10.0034 16.0855 8.65155 16.5948 7.28044 16.5948C5.90932 16.5948 4.55751 16.0659 3.51469 15.0276C1.44836 12.9314 1.44836 9.50312 3.51469 7.40695L4.42233 6.4862C6.06381 4.84061 4.90512 2 2.58774 2C1.15869 2 0 3.17542 0 4.62511V21.3749C0 22.8246 1.15869 24 2.58774 24H7.39631C8.09152 24 8.74811 23.7257 9.2309 23.236L15.9899 16.3793Z" fill="#FF6100"/>
<path d="M14.2903 2C13.5951 2 12.9385 2.27426 12.4557 2.76402L5.69669 9.62066C4.82767 10.5022 4.82767 11.9323 5.69669 12.8139C6.5657 13.6955 7.97544 13.6955 8.84446 12.8139L9.7521 11.8931L10.5825 11.0508C12.6295 8.97418 15.9511 8.83704 18.056 10.8548C20.2382 12.951 20.2769 16.4577 18.1719 18.5931L17.2643 19.5138C15.6228 21.179 16.7815 24 19.0989 24C20.5279 24 21.6866 22.8246 21.6866 21.3749V4.62511C21.6866 3.17542 20.5279 2 19.0989 2H14.2903Z" fill="#FF6100"/>
</svg>
