<svg width="122" height="26" viewBox="0 0 122 26" fill="none" xmlns="http://www.w3.org/2000/svg">
<path d="M15.9899 16.3793C16.8976 15.4586 16.8589 13.911 15.8354 13.049C14.9471 12.3045 13.6146 12.4221 12.8035 13.2449L11.9538 14.1069L11.0462 15.0276C10.0034 16.0855 8.65155 16.5948 7.28044 16.5948C5.90932 16.5948 4.55751 16.0659 3.51469 15.0276C1.44836 12.9314 1.44836 9.50312 3.51469 7.40695L4.42233 6.4862C6.06381 4.84061 4.90512 2 2.58774 2C1.15869 2 0 3.17542 0 4.62511V21.3749C0 22.8246 1.15869 24 2.58774 24H7.39631C8.09152 24 8.74811 23.7257 9.2309 23.236L15.9899 16.3793Z" fill="#FF6100"/>
<path d="M14.2903 2C13.5951 2 12.9385 2.27426 12.4557 2.76402L5.69669 9.62066C4.82767 10.5022 4.82767 11.9323 5.69669 12.8139C6.5657 13.6955 7.97544 13.6955 8.84446 12.8139L9.7521 11.8931L10.5825 11.0508C12.6295 8.97418 15.9511 8.83704 18.056 10.8548C20.2382 12.951 20.2769 16.4577 18.1719 18.5931L17.2643 19.5138C15.6228 21.179 16.7815 24 19.0989 24C20.5279 24 21.6866 22.8246 21.6866 21.3749V4.62511C21.6866 3.17542 20.5279 2 19.0989 2H14.2903Z" fill="#FF6100"/>
<path d="M37.7102 5.54545H35.3068C35.2898 5.34659 35.2443 5.16619 35.1705 5.00426C35.0994 4.84233 35 4.70312 34.8722 4.58665C34.7472 4.46733 34.5952 4.37642 34.4162 4.31392C34.2372 4.24858 34.0341 4.21591 33.8068 4.21591C33.4091 4.21591 33.0724 4.3125 32.7969 4.50568C32.5241 4.69886 32.3168 4.97585 32.1747 5.33665C32.0355 5.69744 31.9659 6.13068 31.9659 6.63636C31.9659 7.17045 32.0369 7.6179 32.179 7.97869C32.3239 8.33665 32.5327 8.60653 32.8054 8.78835C33.0781 8.96733 33.4063 9.05682 33.7898 9.05682C34.0085 9.05682 34.2045 9.02983 34.3778 8.97585C34.5511 8.91903 34.7017 8.83807 34.8295 8.73295C34.9574 8.62784 35.0611 8.50142 35.1406 8.35369C35.223 8.20312 35.2784 8.03409 35.3068 7.84659L37.7102 7.86364C37.6818 8.23295 37.5781 8.60937 37.3991 8.9929C37.2202 9.37358 36.9659 9.72585 36.6364 10.0497C36.3097 10.3707 35.9048 10.6293 35.4219 10.8253C34.9389 11.0213 34.3778 11.1193 33.7386 11.1193C32.9375 11.1193 32.2188 10.9474 31.5824 10.6037C30.9489 10.2599 30.4474 9.75426 30.0781 9.08665C29.7116 8.41903 29.5284 7.60227 29.5284 6.63636C29.5284 5.66477 29.7159 4.84659 30.0909 4.18182C30.4659 3.5142 30.9716 3.00994 31.608 2.66903C32.2443 2.32528 32.9545 2.15341 33.7386 2.15341C34.2898 2.15341 34.7969 2.22869 35.2599 2.37926C35.723 2.52983 36.1293 2.75 36.4787 3.03977C36.8281 3.3267 37.1094 3.6804 37.3224 4.10085C37.5355 4.52131 37.6648 5.00284 37.7102 5.54545ZM41.0227 11H38.4659L41.3465 2.27273H44.5852L47.4659 11H44.909L42.9999 4.67614H42.9318L41.0227 11ZM40.5454 7.55682H45.3522V9.32955H40.5454V7.55682ZM48.5464 11V2.27273H52.3135C52.9612 2.27273 53.5279 2.40057 54.0137 2.65625C54.4995 2.91193 54.8774 3.27131 55.1473 3.73438C55.4171 4.19744 55.5521 4.73864 55.5521 5.35795C55.5521 5.98295 55.4129 6.52415 55.1345 6.98153C54.8589 7.43892 54.4711 7.79119 53.9711 8.03835C53.474 8.28551 52.893 8.40909 52.2282 8.40909H49.9782V6.56818H51.751C52.0294 6.56818 52.2666 6.51989 52.4626 6.4233C52.6615 6.32386 52.8135 6.18324 52.9186 6.00142C53.0265 5.8196 53.0805 5.60511 53.0805 5.35795C53.0805 5.10795 53.0265 4.89489 52.9186 4.71875C52.8135 4.53977 52.6615 4.40341 52.4626 4.30966C52.2666 4.21307 52.0294 4.16477 51.751 4.16477H50.9157V11H48.5464ZM59.0307 2.27273V11H56.6614V2.27273H59.0307ZM60.155 4.18182V2.27273H67.7402V4.18182H65.1152V11H62.78V4.18182H60.155ZM70.0374 11H67.4805L70.3612 2.27273H73.5999L76.4805 11H73.9237L72.0146 4.67614H71.9464L70.0374 11ZM69.5601 7.55682H74.3669V9.32955H69.5601V7.55682ZM77.5611 11V2.27273H79.9304V9.09091H83.4588V11H77.5611ZM89.3611 5C89.3384 4.71591 89.2318 4.49432 89.0415 4.33523C88.854 4.17614 88.5685 4.09659 88.185 4.09659C87.9407 4.09659 87.7404 4.12642 87.5841 4.18608C87.4307 4.2429 87.3171 4.32102 87.2432 4.42045C87.1693 4.51989 87.131 4.63352 87.1282 4.76136C87.1225 4.86648 87.1409 4.96165 87.1836 5.04688C87.229 5.12926 87.3 5.20455 87.3966 5.27273C87.4932 5.33807 87.6168 5.39773 87.7674 5.4517C87.9179 5.50568 88.0969 5.55398 88.3043 5.59659L89.0202 5.75C89.5032 5.85227 89.9165 5.98722 90.2603 6.15483C90.604 6.32244 90.8853 6.51989 91.104 6.74716C91.3228 6.97159 91.4833 7.22443 91.5855 7.50568C91.6907 7.78693 91.7446 8.09375 91.7475 8.42614C91.7446 9 91.6012 9.4858 91.3171 9.88352C91.033 10.2812 90.6267 10.5838 90.0983 10.7912C89.5728 10.9986 88.9407 11.1023 88.202 11.1023C87.4435 11.1023 86.7816 10.9901 86.2162 10.7656C85.6537 10.5412 85.2162 10.196 84.9037 9.73011C84.5941 9.26136 84.4378 8.66193 84.435 7.93182H86.685C86.6992 8.19886 86.7659 8.4233 86.8853 8.60511C87.0046 8.78693 87.1722 8.92472 87.3881 9.01847C87.6068 9.11222 87.8668 9.15909 88.1679 9.15909C88.4208 9.15909 88.6324 9.12784 88.8029 9.06534C88.9733 9.00284 89.1026 8.91619 89.1907 8.8054C89.2787 8.6946 89.3242 8.56818 89.327 8.42614C89.3242 8.29261 89.2801 8.17614 89.1949 8.0767C89.1125 7.97443 88.9762 7.88352 88.7858 7.80398C88.5955 7.72159 88.3384 7.64489 88.0145 7.57386L87.1452 7.38636C86.3725 7.21875 85.7631 6.93892 85.3171 6.54688C84.8739 6.15199 84.6537 5.61364 84.6566 4.93182C84.6537 4.37784 84.8014 3.89347 85.0997 3.47869C85.4009 3.06108 85.8171 2.7358 86.3483 2.50284C86.8824 2.26989 87.4946 2.15341 88.185 2.15341C88.8895 2.15341 89.4989 2.27131 90.0131 2.5071C90.5273 2.7429 90.9236 3.07528 91.202 3.50426C91.4833 3.9304 91.6253 4.42898 91.6282 5H89.3611ZM92.8887 11V2.27273H95.2581V5.68182H98.3944V2.27273H100.764V11H98.3944V7.59091H95.2581V11H92.8887ZM104.498 2.27273V11H102.129V2.27273H104.498ZM105.861 11V2.27273H111.997V4.18182H108.23V5.68182H111.622V7.59091H108.23V11H105.861ZM112.87 4.18182V2.27273H120.455V4.18182H117.83V11H115.495V4.18182H112.87ZM37.7102 18.5455H35.3068C35.2898 18.3466 35.2443 18.1662 35.1705 18.0043C35.0994 17.8423 35 17.7031 34.8722 17.5866C34.7472 17.4673 34.5952 17.3764 34.4162 17.3139C34.2372 17.2486 34.0341 17.2159 33.8068 17.2159C33.4091 17.2159 33.0724 17.3125 32.7969 17.5057C32.5241 17.6989 32.3168 17.9759 32.1747 18.3366C32.0355 18.6974 31.9659 19.1307 31.9659 19.6364C31.9659 20.1705 32.0369 20.6179 32.179 20.9787C32.3239 21.3366 32.5327 21.6065 32.8054 21.7884C33.0781 21.9673 33.4063 22.0568 33.7898 22.0568C34.0085 22.0568 34.2045 22.0298 34.3778 21.9759C34.5511 21.919 34.7017 21.8381 34.8295 21.733C34.9574 21.6278 35.0611 21.5014 35.1406 21.3537C35.223 21.2031 35.2784 21.0341 35.3068 20.8466L37.7102 20.8636C37.6818 21.233 37.5781 21.6094 37.3991 21.9929C37.2202 22.3736 36.9659 22.7259 36.6364 23.0497C36.3097 23.3707 35.9048 23.6293 35.4219 23.8253C34.9389 24.0213 34.3778 24.1193 33.7386 24.1193C32.9375 24.1193 32.2188 23.9474 31.5824 23.6037C30.9489 23.2599 30.4474 22.7543 30.0781 22.0866C29.7116 21.419 29.5284 20.6023 29.5284 19.6364C29.5284 18.6648 29.7159 17.8466 30.0909 17.1818C30.4659 16.5142 30.9716 16.0099 31.608 15.669C32.2443 15.3253 32.9545 15.1534 33.7386 15.1534C34.2898 15.1534 34.7969 15.2287 35.2599 15.3793C35.723 15.5298 36.1293 15.75 36.4787 16.0398C36.8281 16.3267 37.1094 16.6804 37.3224 17.1009C37.5355 17.5213 37.6648 18.0028 37.7102 18.5455ZM39.0252 24V15.2727H42.7922C43.4399 15.2727 44.0067 15.3906 44.4925 15.6264C44.9783 15.8622 45.3561 16.2017 45.626 16.6449C45.8959 17.0881 46.0308 17.6193 46.0308 18.2386C46.0308 18.8636 45.8916 19.3906 45.6132 19.8196C45.3377 20.2486 44.9499 20.5724 44.4499 20.7912C43.9527 21.0099 43.3717 21.1193 42.707 21.1193H40.457V19.2784H42.2297C42.5081 19.2784 42.7453 19.2443 42.9413 19.1761C43.1402 19.1051 43.2922 18.9929 43.3973 18.8395C43.5053 18.6861 43.5592 18.4858 43.5592 18.2386C43.5592 17.9886 43.5053 17.7855 43.3973 17.6293C43.2922 17.4702 43.1402 17.3537 42.9413 17.2798C42.7453 17.2031 42.5081 17.1648 42.2297 17.1648H41.3945V24H39.0252ZM44.1388 19.9943L46.3206 24H43.7467L41.6161 19.9943H44.1388ZM47.2808 24V15.2727H53.5706V17.1818H49.6501V18.6818H53.2467V20.5909H49.6501V22.0909H53.5535V24H47.2808ZM58.3436 24H54.9856V15.2727H58.3095C59.2072 15.2727 59.9828 15.4474 60.6362 15.7969C61.2924 16.1435 61.7981 16.6435 62.1532 17.2969C62.5112 17.9474 62.6902 18.7273 62.6902 19.6364C62.6902 20.5455 62.5126 21.3267 62.1575 21.9801C61.8024 22.6307 61.2995 23.1307 60.649 23.4801C59.9984 23.8267 59.2299 24 58.3436 24ZM57.3549 21.9886H58.2584C58.6902 21.9886 59.0581 21.919 59.362 21.7798C59.6689 21.6406 59.9018 21.4006 60.0609 21.0597C60.2228 20.7187 60.3038 20.2443 60.3038 19.6364C60.3038 19.0284 60.2214 18.554 60.0566 18.2131C59.8947 17.8722 59.6561 17.6321 59.3407 17.4929C59.0282 17.3537 58.6447 17.2841 58.1902 17.2841H57.3549V21.9886ZM66.3957 15.2727V24H64.0264V15.2727H66.3957ZM67.52 17.1818V15.2727H75.1052V17.1818H72.4802V24H70.145V17.1818H67.52ZM84.0323 15.2727H86.4016V20.8636C86.4016 21.5284 86.2425 22.1037 85.9243 22.5895C85.609 23.0724 85.1686 23.446 84.6033 23.7102C84.038 23.9716 83.3817 24.1023 82.6345 24.1023C81.8817 24.1023 81.2226 23.9716 80.6573 23.7102C80.0919 23.446 79.6516 23.0724 79.3363 22.5895C79.0238 22.1037 78.8675 21.5284 78.8675 20.8636V15.2727H81.2368V20.6591C81.2368 20.929 81.2965 21.1705 81.4158 21.3835C81.5351 21.5937 81.6999 21.7585 81.9101 21.8778C82.1232 21.9972 82.3647 22.0568 82.6345 22.0568C82.9073 22.0568 83.1488 21.9972 83.359 21.8778C83.5692 21.7585 83.734 21.5937 83.8533 21.3835C83.9726 21.1705 84.0323 20.929 84.0323 20.6591V15.2727ZM95.3188 15.2727V24H93.3415L90.1881 19.4148H90.137V24H87.7677V15.2727H89.779L92.8813 19.8409H92.9495V15.2727H95.3188ZM99.0489 15.2727V24H96.6795V15.2727H99.0489ZM108.866 19.6364C108.866 20.608 108.677 21.4276 108.3 22.0952C107.922 22.7599 107.412 23.2642 106.77 23.608C106.128 23.9489 105.412 24.1193 104.622 24.1193C103.826 24.1193 103.108 23.9474 102.466 23.6037C101.826 23.2571 101.318 22.7514 100.94 22.0866C100.565 21.419 100.378 20.6023 100.378 19.6364C100.378 18.6648 100.565 17.8466 100.94 17.1818C101.318 16.5142 101.826 16.0099 102.466 15.669C103.108 15.3253 103.826 15.1534 104.622 15.1534C105.412 15.1534 106.128 15.3253 106.77 15.669C107.412 16.0099 107.922 16.5142 108.3 17.1818C108.677 17.8466 108.866 18.6648 108.866 19.6364ZM106.429 19.6364C106.429 19.1136 106.359 18.6733 106.22 18.3153C106.084 17.9545 105.88 17.6818 105.611 17.4972C105.344 17.3097 105.014 17.2159 104.622 17.2159C104.23 17.2159 103.899 17.3097 103.629 17.4972C103.362 17.6818 103.159 17.9545 103.02 18.3153C102.883 18.6733 102.815 19.1136 102.815 19.6364C102.815 20.1591 102.883 20.6009 103.02 20.9616C103.159 21.3196 103.362 21.5923 103.629 21.7798C103.899 21.9645 104.23 22.0568 104.622 22.0568C105.014 22.0568 105.344 21.9645 105.611 21.7798C105.88 21.5923 106.084 21.3196 106.22 20.9616C106.359 20.6009 106.429 20.1591 106.429 19.6364ZM117.754 15.2727V24H115.776L112.623 19.4148H112.572V24H110.202V15.2727H112.214L115.316 19.8409H115.384V15.2727H117.754Z" fill="black"/>
</svg>
