<svg width="85" height="26" viewBox="0 0 85 26" fill="none" xmlns="http://www.w3.org/2000/svg">
<path d="M29.5625 11V2.27273H31.9318V5.80114H32.0511L34.6761 2.27273H37.4375L34.4886 6.15909L37.5057 11H34.6761L32.7159 7.72727L31.9318 8.75V11H29.5625ZM41.5899 2.27273V11H39.2206V2.27273H41.5899ZM51.3439 2.27273V11H49.3667L46.2133 6.41477H46.1621V11H43.7928V2.27273H45.8042L48.9064 6.84091H48.9746V2.27273H51.3439ZM53.5447 11V2.27273H59.8345V4.18182H55.914V5.68182H59.5106V7.59091H55.914V9.09091H59.8174V11H53.5447ZM61.8509 4.18182V2.27273H69.4361V4.18182H66.8111V11H64.4759V4.18182H61.8509ZM73.7771 2.27273V11H71.4078V2.27273H73.7771ZM78.5198 2.27273L79.9516 4.8125H80.0198L81.4686 2.27273H84.1107L81.5027 6.63636L84.213 11H81.5027L80.0198 8.40909H79.9516L78.4686 11H75.7755L78.4516 6.63636L75.8607 2.27273H78.5198ZM29.5625 24V15.2727H35.6989V17.1818H31.9318V18.6818H35.3239V20.5909H31.9318V24H29.5625ZM39.1796 15.2727V24H36.8103V15.2727H39.1796ZM48.0936 15.2727V24H46.1164L42.963 19.4148H42.9118V24H40.5425V15.2727H42.5539L45.6561 19.8409H45.7243V15.2727H48.0936ZM51.7214 24H49.1646L52.0453 15.2727H55.2839L58.1646 24H55.6078L53.6987 17.6761H53.6305L51.7214 24ZM51.2441 20.5568H56.051V22.3295H51.2441V20.5568ZM66.7963 15.2727V24H64.819L61.6656 19.4148H61.6145V24H59.2452V15.2727H61.2565L64.3588 19.8409H64.427V15.2727H66.7963ZM76.3048 18.5455H73.9014C73.8843 18.3466 73.8389 18.1662 73.765 18.0043C73.694 17.8423 73.5945 17.7031 73.4667 17.5866C73.3417 17.4673 73.1897 17.3764 73.0107 17.3139C72.8317 17.2486 72.6286 17.2159 72.4014 17.2159C72.0036 17.2159 71.667 17.3125 71.3914 17.5057C71.1187 17.6989 70.9113 17.9759 70.7692 18.3366C70.63 18.6974 70.5604 19.1307 70.5604 19.6364C70.5604 20.1705 70.6315 20.6179 70.7735 20.9787C70.9184 21.3366 71.1272 21.6065 71.3999 21.7884C71.6727 21.9673 72.0008 22.0568 72.3843 22.0568C72.6031 22.0568 72.7991 22.0298 72.9724 21.9759C73.1457 21.919 73.2962 21.8381 73.4241 21.733C73.5519 21.6278 73.6556 21.5014 73.7352 21.3537C73.8175 21.2031 73.8729 21.0341 73.9014 20.8466L76.3048 20.8636C76.2764 21.233 76.1727 21.6094 75.9937 21.9929C75.8147 22.3736 75.5604 22.7259 75.2309 23.0497C74.9042 23.3707 74.4994 23.6293 74.0164 23.8253C73.5335 24.0213 72.9724 24.1193 72.3332 24.1193C71.532 24.1193 70.8133 23.9474 70.1769 23.6037C69.5434 23.2599 69.042 22.7543 68.6727 22.0866C68.3062 21.419 68.1229 20.6023 68.1229 19.6364C68.1229 18.6648 68.3104 17.8466 68.6854 17.1818C69.0604 16.5142 69.5661 16.0099 70.2025 15.669C70.8389 15.3253 71.5491 15.1534 72.3332 15.1534C72.8843 15.1534 73.3914 15.2287 73.8545 15.3793C74.3175 15.5298 74.7238 15.75 75.0732 16.0398C75.4227 16.3267 75.7039 16.6804 75.917 17.1009C76.13 17.5213 76.2593 18.0028 76.3048 18.5455ZM77.6197 24V15.2727H83.9095V17.1818H79.989V18.6818H83.5856V20.5909H79.989V22.0909H83.8924V24H77.6197Z" fill="black"/>
<path d="M15.9899 16.3793C16.8976 15.4586 16.8589 13.911 15.8354 13.049C14.9471 12.3045 13.6146 12.4221 12.8035 13.2449L11.9538 14.1069L11.0462 15.0276C10.0034 16.0855 8.65155 16.5948 7.28044 16.5948C5.90932 16.5948 4.55751 16.0659 3.51469 15.0276C1.44836 12.9314 1.44836 9.50312 3.51469 7.40695L4.42233 6.4862C6.06381 4.84061 4.90512 2 2.58774 2C1.15869 2 0 3.17542 0 4.62511V21.3749C0 22.8246 1.15869 24 2.58774 24H7.39631C8.09152 24 8.74811 23.7257 9.2309 23.236L15.9899 16.3793Z" fill="#FF6100"/>
<path d="M14.2903 2C13.5951 2 12.9385 2.27426 12.4557 2.76402L5.69669 9.62066C4.82767 10.5022 4.82767 11.9323 5.69669 12.8139C6.5657 13.6955 7.97544 13.6955 8.84446 12.8139L9.7521 11.8931L10.5825 11.0508C12.6295 8.97418 15.9511 8.83704 18.056 10.8548C20.2382 12.951 20.2769 16.4577 18.1719 18.5931L17.2643 19.5138C15.6228 21.179 16.7815 24 19.0989 24C20.5279 24 21.6866 22.8246 21.6866 21.3749V4.62511C21.6866 3.17542 20.5279 2 19.0989 2H14.2903Z" fill="#FF6100"/>
</svg>
