<svg width="85" height="26" viewBox="0 0 85 26" fill="none" xmlns="http://www.w3.org/2000/svg">
<path d="M29.5625 11V2.27273H31.9318V5.80114H32.0511L34.6761 2.27273H37.4375L34.4886 6.15909L37.5057 11H34.6761L32.7159 7.72727L31.9318 8.75V11H29.5625ZM41.5899 2.27273V11H39.2206V2.27273H41.5899ZM51.3439 2.27273V11H49.3667L46.2133 6.41477H46.1621V11H43.7928V2.27273H45.8042L48.9064 6.84091H48.9746V2.27273H51.3439ZM53.5447 11V2.27273H59.8345V4.18182H55.914V5.68182H59.5106V7.59091H55.914V9.09091H59.8174V11H53.5447ZM61.8509 4.18182V2.27273H69.4361V4.18182H66.8111V11H64.4759V4.18182H61.8509ZM73.7771 2.27273V11H71.4078V2.27273H73.7771ZM78.5198 2.27273L79.9516 4.8125H80.0198L81.4686 2.27273H84.1107L81.5027 6.63636L84.213 11H81.5027L80.0198 8.40909H79.9516L78.4686 11H75.7755L78.4516 6.63636L75.8607 2.27273H78.5198ZM31.8295 24H29.2727L32.1534 15.2727H35.392L38.2727 24H35.7159L33.8068 17.6761H33.7386L31.8295 24ZM31.3523 20.5568H36.1591V22.3295H31.3523V20.5568ZM47.8109 18.5455H45.4074C45.3904 18.3466 45.3449 18.1662 45.2711 18.0043C45.2001 17.8423 45.1006 17.7031 44.9728 17.5866C44.8478 17.4673 44.6958 17.3764 44.5168 17.3139C44.3378 17.2486 44.1347 17.2159 43.9074 17.2159C43.5097 17.2159 43.1731 17.3125 42.8975 17.5057C42.6248 17.6989 42.4174 17.9759 42.2753 18.3366C42.1361 18.6974 42.0665 19.1307 42.0665 19.6364C42.0665 20.1705 42.1376 20.6179 42.2796 20.9787C42.4245 21.3366 42.6333 21.6065 42.906 21.7884C43.1788 21.9673 43.5069 22.0568 43.8904 22.0568C44.1091 22.0568 44.3052 22.0298 44.4785 21.9759C44.6518 21.919 44.8023 21.8381 44.9302 21.733C45.058 21.6278 45.1617 21.5014 45.2413 21.3537C45.3236 21.2031 45.379 21.0341 45.4074 20.8466L47.8109 20.8636C47.7824 21.233 47.6788 21.6094 47.4998 21.9929C47.3208 22.3736 47.0665 22.7259 46.737 23.0497C46.4103 23.3707 46.0055 23.6293 45.5225 23.8253C45.0395 24.0213 44.4785 24.1193 43.8393 24.1193C43.0381 24.1193 42.3194 23.9474 41.683 23.6037C41.0495 23.2599 40.5481 22.7543 40.1788 22.0866C39.8123 21.419 39.629 20.6023 39.629 19.6364C39.629 18.6648 39.8165 17.8466 40.1915 17.1818C40.5665 16.5142 41.0722 16.0099 41.7086 15.669C42.3449 15.3253 43.0552 15.1534 43.8393 15.1534C44.3904 15.1534 44.8975 15.2287 45.3606 15.3793C45.8236 15.5298 46.2299 15.75 46.5793 16.0398C46.9288 16.3267 47.21 16.6804 47.4231 17.1009C47.6361 17.5213 47.7654 18.0028 47.8109 18.5455ZM57.9935 18.5455H55.5901C55.5731 18.3466 55.5276 18.1662 55.4537 18.0043C55.3827 17.8423 55.2833 17.7031 55.1554 17.5866C55.0304 17.4673 54.8785 17.3764 54.6995 17.3139C54.5205 17.2486 54.3174 17.2159 54.0901 17.2159C53.6924 17.2159 53.3557 17.3125 53.0802 17.5057C52.8074 17.6989 52.6 17.9759 52.458 18.3366C52.3188 18.6974 52.2492 19.1307 52.2492 19.6364C52.2492 20.1705 52.3202 20.6179 52.4623 20.9787C52.6071 21.3366 52.816 21.6065 53.0887 21.7884C53.3614 21.9673 53.6895 22.0568 54.0731 22.0568C54.2918 22.0568 54.4878 22.0298 54.6611 21.9759C54.8344 21.919 54.985 21.8381 55.1128 21.733C55.2407 21.6278 55.3444 21.5014 55.4239 21.3537C55.5063 21.2031 55.5617 21.0341 55.5901 20.8466L57.9935 20.8636C57.9651 21.233 57.8614 21.6094 57.6824 21.9929C57.5035 22.3736 57.2492 22.7259 56.9196 23.0497C56.5929 23.3707 56.1881 23.6293 55.7052 23.8253C55.2222 24.0213 54.6611 24.1193 54.0219 24.1193C53.2208 24.1193 52.502 23.9474 51.8657 23.6037C51.2321 23.2599 50.7307 22.7543 50.3614 22.0866C49.9949 21.419 49.8117 20.6023 49.8117 19.6364C49.8117 18.6648 49.9992 17.8466 50.3742 17.1818C50.7492 16.5142 51.2549 16.0099 51.8912 15.669C52.5276 15.3253 53.2378 15.1534 54.0219 15.1534C54.5731 15.1534 55.0802 15.2287 55.5432 15.3793C56.0063 15.5298 56.4125 15.75 56.762 16.0398C57.1114 16.3267 57.3927 16.6804 57.6057 17.1009C57.8188 17.5213 57.9481 18.0028 57.9935 18.5455ZM60.0284 24V15.2727H66.3182V17.1818H62.3978V18.6818H65.9943V20.5909H62.3978V22.0909H66.3012V24H60.0284ZM73.1578 18C73.1351 17.7159 73.0286 17.4943 72.8382 17.3352C72.6507 17.1761 72.3652 17.0966 71.9817 17.0966C71.7374 17.0966 71.5371 17.1264 71.3808 17.1861C71.2274 17.2429 71.1138 17.321 71.0399 17.4205C70.9661 17.5199 70.9277 17.6335 70.9249 17.7614C70.9192 17.8665 70.9377 17.9616 70.9803 18.0469C71.0257 18.1293 71.0967 18.2045 71.1933 18.2727C71.2899 18.3381 71.4135 18.3977 71.5641 18.4517C71.7146 18.5057 71.8936 18.554 72.101 18.5966L72.8169 18.75C73.2999 18.8523 73.7132 18.9872 74.057 19.1548C74.4007 19.3224 74.682 19.5199 74.9007 19.7472C75.1195 19.9716 75.28 20.2244 75.3823 20.5057C75.4874 20.7869 75.5413 21.0937 75.5442 21.4261C75.5413 22 75.3979 22.4858 75.1138 22.8835C74.8297 23.2812 74.4235 23.5838 73.895 23.7912C73.3695 23.9986 72.7374 24.1023 71.9987 24.1023C71.2402 24.1023 70.5783 23.9901 70.0129 23.7656C69.4504 23.5412 69.0129 23.196 68.7004 22.7301C68.3908 22.2614 68.2345 21.6619 68.2317 20.9318H70.4817C70.4959 21.1989 70.5627 21.4233 70.682 21.6051C70.8013 21.7869 70.9689 21.9247 71.1848 22.0185C71.4036 22.1122 71.6635 22.1591 71.9646 22.1591C72.2175 22.1591 72.4291 22.1278 72.5996 22.0653C72.77 22.0028 72.8993 21.9162 72.9874 21.8054C73.0754 21.6946 73.1209 21.5682 73.1237 21.4261C73.1209 21.2926 73.0769 21.1761 72.9916 21.0767C72.9092 20.9744 72.7729 20.8835 72.5825 20.804C72.3922 20.7216 72.1351 20.6449 71.8112 20.5739L70.9419 20.3864C70.1692 20.2187 69.5598 19.9389 69.1138 19.5469C68.6706 19.152 68.4504 18.6136 68.4533 17.9318C68.4504 17.3778 68.5982 16.8935 68.8965 16.4787C69.1976 16.0611 69.6138 15.7358 70.145 15.5028C70.6791 15.2699 71.2913 15.1534 71.9817 15.1534C72.6862 15.1534 73.2956 15.2713 73.8098 15.5071C74.324 15.7429 74.7203 16.0753 74.9987 16.5043C75.28 16.9304 75.422 17.429 75.4249 18H73.1578ZM82.11 18C82.0873 17.7159 81.9808 17.4943 81.7904 17.3352C81.6029 17.1761 81.3174 17.0966 80.9339 17.0966C80.6896 17.0966 80.4893 17.1264 80.333 17.1861C80.1796 17.2429 80.066 17.321 79.9921 17.4205C79.9183 17.5199 79.8799 17.6335 79.8771 17.7614C79.8714 17.8665 79.8898 17.9616 79.9325 18.0469C79.9779 18.1293 80.0489 18.2045 80.1455 18.2727C80.2421 18.3381 80.3657 18.3977 80.5163 18.4517C80.6668 18.5057 80.8458 18.554 81.0532 18.5966L81.7691 18.75C82.2521 18.8523 82.6654 18.9872 83.0092 19.1548C83.3529 19.3224 83.6342 19.5199 83.8529 19.7472C84.0717 19.9716 84.2322 20.2244 84.3344 20.5057C84.4396 20.7869 84.4935 21.0937 84.4964 21.4261C84.4935 22 84.3501 22.4858 84.066 22.8835C83.7819 23.2812 83.3756 23.5838 82.8472 23.7912C82.3217 23.9986 81.6896 24.1023 80.9509 24.1023C80.1924 24.1023 79.5305 23.9901 78.9651 23.7656C78.4026 23.5412 77.9651 23.196 77.6526 22.7301C77.343 22.2614 77.1867 21.6619 77.1839 20.9318H79.4339C79.4481 21.1989 79.5148 21.4233 79.6342 21.6051C79.7535 21.7869 79.9211 21.9247 80.137 22.0185C80.3558 22.1122 80.6157 22.1591 80.9168 22.1591C81.1697 22.1591 81.3813 22.1278 81.5518 22.0653C81.7222 22.0028 81.8515 21.9162 81.9396 21.8054C82.0276 21.6946 82.0731 21.5682 82.0759 21.4261C82.0731 21.2926 82.029 21.1761 81.9438 21.0767C81.8614 20.9744 81.7251 20.8835 81.5347 20.804C81.3444 20.7216 81.0873 20.6449 80.7634 20.5739L79.8941 20.3864C79.1214 20.2187 78.512 19.9389 78.066 19.5469C77.6228 19.152 77.4026 18.6136 77.4055 17.9318C77.4026 17.3778 77.5504 16.8935 77.8486 16.4787C78.1498 16.0611 78.566 15.7358 79.0972 15.5028C79.6313 15.2699 80.2435 15.1534 80.9339 15.1534C81.6384 15.1534 82.2478 15.2713 82.762 15.5071C83.2762 15.7429 83.6725 16.0753 83.9509 16.5043C84.2322 16.9304 84.3742 17.429 84.3771 18H82.11Z" fill="black"/>
<path d="M15.9899 16.3793C16.8976 15.4586 16.8589 13.911 15.8354 13.049C14.9471 12.3045 13.6146 12.4221 12.8035 13.2449L11.9538 14.1069L11.0462 15.0276C10.0034 16.0855 8.65155 16.5948 7.28044 16.5948C5.90932 16.5948 4.55751 16.0659 3.51469 15.0276C1.44836 12.9314 1.44836 9.50312 3.51469 7.40695L4.42233 6.4862C6.06381 4.84061 4.90512 2 2.58774 2C1.15869 2 0 3.17542 0 4.62511V21.3749C0 22.8246 1.15869 24 2.58774 24H7.39631C8.09152 24 8.74811 23.7257 9.2309 23.236L15.9899 16.3793Z" fill="#FF6100"/>
<path d="M14.2923 2C13.5971 2 12.9404 2.27426 12.4576 2.76402L5.69864 9.62066C4.82962 10.5022 4.82962 11.9323 5.69864 12.8139C6.56765 13.6955 7.97739 13.6955 8.84641 12.8139L9.75405 11.8931L10.5845 11.0508C12.6315 8.97418 15.9531 8.83704 18.058 10.8548C20.2402 12.951 20.2789 16.4577 18.1739 18.5931L17.2662 19.5138C15.6248 21.179 16.7835 24 19.1009 24C20.5299 24 21.6885 22.8246 21.6885 21.3749V4.62511C21.6885 3.17542 20.5299 2 19.1009 2H14.2923Z" fill="#FF6100"/>
</svg>
